# xmcd
#
# Track frame offsets:
#  151
#  14092
#  28265
#  46645
#  64418
#  80017
#
# Disc length: 1226 seconds
#
# Revision: 0
# Processed by: cddbd v1.5.1PL0 Copyright (c) Steve Scherf et al.
# Submitted via: Collectorz.com_Music_Collector 6.9
#
DISCID=4d04c806
DTITLE=The Cosh - The Cosh
DYEAR=2005
DGENRE=Blues
TTITLE0=Colour My World
TTITLE1=Show Business
TTITLE2=Off In The Stars
TTITLE3=Ramblin' Man
TTITLE4=She Turned My Head
TTITLE5=The Outlaw
EXTD=
EXTT0=
EXTT1=
EXTT2=
EXTT3=
EXTT4=
EXTT5=
PLAYORDER=
